<svg width="458" height="504" viewBox="0 0 458 504" fill="none" xmlns="http://www.w3.org/2000/svg">
<path fill-rule="evenodd" clip-rule="evenodd" d="M57.8003 149.747C57.7716 149.817 57.7405 149.9 57.7072 149.996C42.4602 194.4 48.4424 245.181 78.1457 285.911C109.222 328.523 158.722 349.781 207.826 346.634C228.027 345.339 250.543 353.202 263.775 372.857L263.93 373.088L324.473 465.243C331.98 476.67 328.802 492.02 317.373 499.525C305.947 507.033 290.596 503.855 283.089 492.428L222.653 400.437C221.069 398.152 217.145 395.653 210.993 396.047C145.698 400.232 79.6123 371.953 38.1404 315.086C-1.49271 260.74 -9.39631 192.959 10.8775 133.916C18.0597 113 35.9464 101.465 54.7352 100.327C72.8054 99.2328 91.0979 107.599 102.693 123.498L157.524 198.683C159.134 200.891 161.735 202.159 164.468 202.068L194.377 201.064C197.758 200.951 200.728 198.785 201.869 195.601L211.965 167.429C212.887 164.855 212.475 161.992 210.864 159.783L156.033 84.598C144.438 68.6986 142.063 48.7246 148.628 31.8533C155.454 14.3105 171.903 0.804983 194.012 0.360073C256.426 -0.900036 318.55 27.3399 358.183 81.6855C399.655 138.553 406.384 210.119 382.445 271.01C380.19 276.748 381.369 281.249 383.062 283.454L452.18 369.114C460.768 379.753 459.102 395.34 448.462 403.925C437.82 412.515 422.235 410.849 413.649 400.208L344.232 314.182C329.561 295.576 328.957 271.733 336.365 252.894C354.368 207.1 349.254 153.473 318.178 110.861C288.474 70.1309 241.952 48.9148 195.012 49.8633C194.91 49.8648 194.823 49.8683 194.746 49.8752C194.427 50.7816 194.256 52.9787 196.039 55.423L250.869 130.608C262.146 146.071 265.032 166.117 258.576 184.133L248.48 212.305C240.491 234.598 219.705 249.756 196.037 250.55L166.128 251.554C146.999 252.195 128.795 243.321 117.518 227.858L62.6877 152.673C60.9051 150.229 58.762 149.719 57.8003 149.747ZM57.9694 149.408C57.9698 149.409 57.9803 149.394 57.9694 149.408Z" fill="#3678DD"/>
</svg>
